<?xml version="1.0" encoding="UTF-8"?>
<svg width="64" height="64" viewBox="0 0 64 64" xmlns="http://www.w3.org/2000/svg">
  <!-- Shield shape with embedded S -->
  <g id="icon">
    <!-- Background circle -->
    <circle cx="32" cy="32" r="30" fill="url(#bgGradient)" opacity="0.1"/>
    
    <!-- Shield shape -->
    <path d="M 32 8 L 14 16 L 14 28 C 14 40 20 48 32 56 C 44 48 50 40 50 28 L 50 16 Z" 
          fill="url(#iconGradient)" 
          filter="url(#shadow)"/>
    
    <!-- S letter -->
    <path d="M 24 20 Q 20 20 20 24 Q 20 28 28 30 L 36 32 Q 44 34 44 38 Q 44 42 40 42 M 40 42 Q 36 42 32 40" 
          fill="none" 
          stroke="white" 
          stroke-width="3.5" 
          stroke-linecap="round"
          stroke-linejoin="round"/>
    
    <!-- Security dot accents -->
    <circle cx="32" cy="24" r="1.5" fill="white" opacity="0.8"/>
    <circle cx="32" cy="38" r="1.5" fill="white" opacity="0.8"/>
  </g>
  
  <!-- Definitions -->
  <defs>
    <!-- Background gradient -->
    <linearGradient id="bgGradient" x1="0%" y1="0%" x2="100%" y2="100%">
      <stop offset="0%" style="stop-color:#0366d6;stop-opacity:1" />
      <stop offset="100%" style="stop-color:#0550ae;stop-opacity:1" />
    </linearGradient>
    
    <!-- Icon gradient -->
    <linearGradient id="iconGradient" x1="0%" y1="0%" x2="100%" y2="100%">
      <stop offset="0%" style="stop-color:#0366d6;stop-opacity:1" />
      <stop offset="50%" style="stop-color:#0550ae;stop-opacity:1" />
      <stop offset="100%" style="stop-color:#033a70;stop-opacity:1" />
    </linearGradient>
    
    <!-- Shadow filter -->
    <filter id="shadow" x="-50%" y="-50%" width="200%" height="200%">
      <feDropShadow dx="0" dy="2" stdDeviation="2" flood-opacity="0.2"/>
    </filter>
  </defs>
</svg>